<svg width="22" height="22" viewBox="0 0 22 22" fill="none" xmlns="http://www.w3.org/2000/svg">
<path fill-rule="evenodd" clip-rule="evenodd" d="M6.83841 4.77347C7.95009 3.96968 8.73732 3.40179 9.40272 3.02839C10.0522 2.66392 10.5258 2.52051 10.9997 2.52051C11.4736 2.52051 11.9471 2.66392 12.5966 3.02839C13.262 3.40179 14.0493 3.96968 15.1609 4.77347L16.4808 5.72778C17.3752 6.37442 18.0047 6.83057 18.4645 7.2385C18.9132 7.63669 19.1544 7.95038 19.2991 8.28966C19.4433 8.62764 19.5 9.0105 19.4718 9.59308C19.4428 10.1921 19.3287 10.9406 19.1647 12.0076L18.8888 13.8033C18.6566 15.314 18.4912 16.3813 18.258 17.186C18.0309 17.9699 17.7611 18.422 17.37 18.7473C16.976 19.075 16.4642 19.2695 15.6161 19.3725C14.7507 19.4777 13.626 19.4788 12.0436 19.4788H9.95576C8.37339 19.4788 7.24861 19.4777 6.38327 19.3725C5.53513 19.2695 5.02332 19.075 4.62939 18.7473C4.23829 18.422 3.96846 17.9699 3.74131 17.186C3.50814 16.3813 3.34276 15.314 3.11059 13.8033L2.83464 12.0076C2.67068 10.9406 2.55653 10.1921 2.52753 9.59309C2.49932 9.0105 2.55606 8.62764 2.70021 8.28966C2.84492 7.95038 3.08611 7.63669 3.5349 7.2385C3.99466 6.83057 4.62419 6.37442 5.51854 5.72778L6.83841 4.77347ZM10.9997 1.14551C10.2058 1.14551 9.49605 1.39932 8.72983 1.82929C7.98742 2.2459 7.13672 2.861 6.06697 3.63448L4.68369 4.63464L4.68368 4.63465C3.82519 5.25536 3.13951 5.75111 2.62234 6.20997C2.08835 6.68376 1.68885 7.15609 1.43545 7.75021C1.18149 8.34564 1.12007 8.95592 1.15414 9.65958C1.18701 10.3386 1.31293 11.158 1.46994 12.1796L1.75893 14.0601C1.98202 15.512 2.15966 16.668 2.42064 17.5687C2.6905 18.4999 3.07065 19.2393 3.75013 19.8045C4.42678 20.3673 5.23284 20.6179 6.21748 20.7375C7.17534 20.8539 8.38364 20.8539 9.90985 20.8538H12.0895C13.6157 20.8539 14.824 20.8539 15.7819 20.7375C16.7665 20.6179 17.5726 20.3673 18.2492 19.8045C18.9287 19.2393 19.3089 18.4999 19.5787 17.5687C19.8397 16.668 20.0173 15.512 20.2404 14.0602V14.0602L20.5294 12.1795C20.6864 11.1579 20.8123 10.3386 20.8452 9.65958C20.8793 8.95592 20.8179 8.34564 20.5639 7.75021C20.3105 7.15609 19.911 6.68376 19.377 6.20997C18.8598 5.75111 18.1742 5.25535 17.3157 4.63465L15.9324 3.63449L15.9324 3.63447C14.8626 2.861 14.0119 2.2459 13.2695 1.82929C12.5033 1.39932 11.7936 1.14551 10.9997 1.14551ZM8.67198 15.0405C8.37236 14.8072 7.9404 14.8611 7.70717 15.1607C7.47394 15.4603 7.52776 15.8923 7.82738 16.1255C8.68317 16.7917 9.79509 17.1871 10.9997 17.1871C12.2043 17.1871 13.3162 16.7917 14.172 16.1255C14.4716 15.8923 14.5254 15.4603 14.2922 15.1607C14.059 14.8611 13.627 14.8072 13.3274 15.0405C12.7174 15.5153 11.9039 15.8122 10.9997 15.8122C10.0955 15.8122 9.28198 15.5153 8.67198 15.0405Z" fill="#9A9D93"/>
</svg>
