<svg width="22" height="22" viewBox="0 0 22 22" fill="none" xmlns="http://www.w3.org/2000/svg">
<path d="M12.75 1.5C14.6568 1.5 16.0115 1.50159 17.0392 1.63976C18.0452 1.77503 18.6249 2.02869 19.0481 2.4519C19.5352 2.93904 19.7473 3.31666 19.8647 3.98984C19.9971 4.7486 20 5.83092 20 7.75C20 8.16422 20.3358 8.5 20.75 8.5C21.1642 8.5 21.5 8.16422 21.5 7.75L21.5 7.65369C21.5001 5.8545 21.5001 4.63571 21.3424 3.73199C21.167 2.72665 20.7932 2.07568 20.1088 1.39124C19.3604 0.642881 18.4115 0.310764 17.239 0.153136C16.0998 -2.73585e-05 14.6442 -1.51287e-05 12.8064 3.08995e-07H12.75C12.3358 3.08995e-07 12 0.335788 12 0.750001C12 1.16421 12.3358 1.5 12.75 1.5Z" fill="white"/>
<path d="M0.750005 13C1.16422 13 1.50001 13.3358 1.50001 13.75C1.50001 15.6691 1.50289 16.7514 1.63529 17.5102C1.75275 18.1833 1.96477 18.561 2.45191 19.0481C2.87512 19.4713 3.45476 19.725 4.46085 19.8602C5.48852 19.9984 6.84318 20 8.75 20C9.16422 20 9.50001 20.3358 9.50001 20.75C9.50001 21.1642 9.16422 21.5 8.75 21.5H8.69359C6.85583 21.5 5.4002 21.5 4.26098 21.3469C3.08856 21.1892 2.13961 20.8571 1.39125 20.1088C0.706812 19.4243 0.333043 18.7733 0.157616 17.768C-7.75605e-05 16.8643 -4.55875e-05 15.6455 1.61989e-06 13.8464L5.25577e-06 13.75C5.25577e-06 13.3358 0.335792 13 0.750005 13Z" fill="white"/>
<path d="M20.75 13C21.1642 13 21.5 13.3358 21.5 13.75L21.5 13.8463C21.5001 15.6455 21.5001 16.8643 21.3424 17.768C21.167 18.7733 20.7932 19.4243 20.1088 20.1088C19.3604 20.8571 18.4115 21.1892 17.239 21.3469C16.0998 21.5 14.6442 21.5 12.8064 21.5H12.75C12.3358 21.5 12 21.1642 12 20.75C12 20.3358 12.3358 20 12.75 20C14.6568 20 16.0115 19.9984 17.0392 19.8602C18.0452 19.725 18.6249 19.4713 19.0481 19.0481C19.5352 18.561 19.7473 18.1833 19.8647 17.5102C19.9971 16.7514 20 15.6691 20 13.75C20 13.3358 20.3358 13 20.75 13Z" fill="white"/>
<path d="M8.69359 3.08995e-07H8.75001C9.16422 3.08995e-07 9.50001 0.335788 9.50001 0.750001C9.50001 1.16421 9.16422 1.5 8.75001 1.5C6.84319 1.5 5.48852 1.50159 4.46085 1.63976C3.45476 1.77503 2.87512 2.02869 2.45191 2.4519C1.96477 2.93904 1.75275 3.31666 1.63529 3.98984C1.50289 4.7486 1.50001 5.83092 1.50001 7.75C1.50001 8.16422 1.16422 8.5 0.750005 8.5C0.335792 8.5 5.25577e-06 8.16422 5.25577e-06 7.75L1.61989e-06 7.65369C-4.55875e-05 5.85453 -7.75605e-05 4.6357 0.157616 3.73199C0.333043 2.72665 0.706811 2.07568 1.39125 1.39124C2.13961 0.642881 3.08856 0.310764 4.26098 0.153136C5.40019 -2.73436e-05 6.85584 -1.51287e-05 8.69359 3.08995e-07Z" fill="white"/>
<path d="M0.750005 10C0.335792 10 5.25577e-06 10.3358 5.25577e-06 10.75C5.25577e-06 11.1642 0.335792 11.5 0.750005 11.5H20.75C21.1642 11.5 21.5 11.1642 21.5 10.75C21.5 10.3358 21.1642 10 20.75 10H0.750005Z" fill="white"/>
</svg>
